<svg viewBox="0 0 131 110" xmlns="http://www.w3.org/2000/svg" xmlns:xlink="http://www.w3.org/1999/xlink"><style>:root>svg{display:none}:root>svg:target{display:block}</style><svg fill="none" viewBox="0 0 131 110" id="diamond" xmlns="http://www.w3.org/2000/svg"><path d="M65.5 1h35.833L130 36.667M65.5 1 87 36.667M65.5 1H29.667L1 36.667M65.5 1 44 36.667m86 0L65.5 108M130 36.667H87M65.5 108 87 36.667M65.5 108 1 36.667M65.5 108 44 36.667m43 0H44m-43 0h43" stroke="#FFCF2D" stroke-width="1.5"/></svg><svg fill="none" viewBox="0 0 23 21" id="favorites" xmlns="http://www.w3.org/2000/svg"><path fill-rule="evenodd" clip-rule="evenodd" d="M15.74.804c-1.447 0-2.38.172-3.45.692a6.175 6.175 0 0 0-1.113.695 6.306 6.306 0 0 0-1.068-.663C9.019.992 8.037.804 6.642.804 2.903.804.187 3.882.187 7.88c0 3.02 1.694 5.935 4.849 8.755 1.656 1.48 3.77 2.945 5.285 3.724l.866.446.866-.446c1.515-.779 3.63-2.244 5.285-3.724 3.155-2.82 4.849-5.736 4.849-8.755 0-3.955-2.742-7.06-6.447-7.075Zm4.447 7.075c0 2.366-1.414 4.8-4.186 7.277-1.512 1.351-3.455 2.702-4.814 3.41-1.359-.708-3.302-2.058-4.814-3.41-2.772-2.477-4.186-4.911-4.186-7.277 0-2.953 1.884-5.087 4.455-5.087 1.11 0 1.793.13 2.58.517.465.229.876.53 1.232.907l.735.78.73-.786c.363-.392.78-.7 1.25-.929.764-.372 1.405-.49 2.567-.49 2.54.011 4.451 2.176 4.451 5.088Z" fill="#9564AA"/></svg><svg fill="none" viewBox="0 0 23 17" id="guests" xmlns="http://www.w3.org/2000/svg"><path fill-rule="evenodd" clip-rule="evenodd" d="M7.187 8.804a4 4 0 1 0 8 0 4 4 0 0 0-8 0Zm6 0a2 2 0 1 1-4 0 2 2 0 0 1 4 0Z" fill="#9564AA"/><path fill-rule="evenodd" clip-rule="evenodd" d="M11.187.804c2.728 0 5.336 1.43 7.766 3.781.83.802 1.58 1.658 2.24 2.515.399.517.682.923.836 1.165l.345.54-.345.538c-.154.242-.437.649-.836 1.166-.66.856-1.41 1.712-2.24 2.514-2.43 2.35-5.038 3.781-7.766 3.781-2.728 0-5.336-1.43-7.766-3.781a23.303 23.303 0 0 1-2.24-2.514 17.493 17.493 0 0 1-.836-1.166L0 8.804l.345-.539C.5 8.023.782 7.617 1.18 7.1c.66-.857 1.41-1.713 2.24-2.515 2.43-2.35 5.038-3.78 7.766-3.78Zm8.422 7.517a21.334 21.334 0 0 0-2.046-2.298c-2.093-2.024-4.27-3.219-6.376-3.219-2.105 0-4.282 1.195-6.376 3.219a21.326 21.326 0 0 0-2.408 2.781 21.32 21.32 0 0 0 2.408 2.781c2.094 2.025 4.271 3.22 6.376 3.22 2.105 0 4.283-1.195 6.376-3.22a21.327 21.327 0 0 0 2.408-2.78c-.11-.153-.231-.315-.362-.484Z" fill="#9564AA"/></svg><svg viewBox="0 0 24 24" id="hide" xmlns="http://www.w3.org/2000/svg"><path fill-rule="evenodd" clip-rule="evenodd" d="M12 4c2.727 0 5.336 1.43 7.766 3.781a23.31 23.31 0 0 1 2.24 2.515c.399.516.681.923.836 1.165l.345.539-.345.539c-.154.242-.437.649-.836 1.165-.66.857-1.41 1.713-2.24 2.515C17.336 18.569 14.728 20 12 20c-2.728 0-5.336-1.43-7.766-3.781a23.302 23.302 0 0 1-2.24-2.515 17.483 17.483 0 0 1-.836-1.165L.813 12l.345-.539c.154-.242.437-.649.836-1.165.66-.857 1.41-1.713 2.24-2.515C6.664 5.431 9.272 4 12 4Zm8.422 7.517a21.33 21.33 0 0 0-2.046-2.298C16.282 7.194 14.106 6 12 6 9.895 6 7.717 7.194 5.624 9.219A21.324 21.324 0 0 0 3.216 12a21.319 21.319 0 0 0 2.408 2.781C7.717 16.806 9.894 18 12 18c2.105 0 4.282-1.194 6.376-3.219A21.325 21.325 0 0 0 20.784 12c-.11-.152-.231-.314-.362-.483ZM8 12a4 4 0 1 0 8 0 4 4 0 0 0-8 0Zm6 0a2 2 0 1 1-4 0 2 2 0 0 1 4 0Z"/></svg><svg viewBox="0 0 22 22" id="hide-2" xmlns="http://www.w3.org/2000/svg"><path fill-rule="evenodd" clip-rule="evenodd" d="M11 15a4 4 0 1 1 0-8 4 4 0 0 1 0 8Zm2-4a2 2 0 1 1-4 0 2 2 0 0 1 4 0Z"/><path fill-rule="evenodd" clip-rule="evenodd" d="m17.656 19.897 2.217-2.217-.78-2.837.34-.813L22 12.582V9.446l-2.56-1.454-.335-.811.791-2.839-2.219-2.215-2.837.78-.81-.34L12.58 0H9.446L7.991 2.56l-.811.334-2.838-.791-2.215 2.215.78 2.838-.34.81L0 9.416v3.134l2.558 1.458.335.811-.791 2.838 2.216 2.216 2.838-.78.81.34 1.45 2.566h3.134l1.457-2.558.811-.334 2.838.79Zm.197-7.271-.872 2.082.655 2.38-.568.569-2.376-.662-2.083.86-1.222 2.144h-.804L9.37 17.853l-2.08-.872-2.382.655-.567-.567.662-2.376-.86-2.083L2 11.388v-.805l2.147-1.212.872-2.08-.655-2.382.566-.566 2.376.663 2.084-.86L10.61 2h.803l1.211 2.147 2.08.872 2.383-.655.569.568-.662 2.375.86 2.084L20 10.61v.803l-2.147 1.212Z"/></svg><svg viewBox="0 0 20 20" id="hide-3" xmlns="http://www.w3.org/2000/svg"><path fill-rule="evenodd" clip-rule="evenodd" d="M4 19.804 10.087 16H18a2 2 0 0 0 2-2V2a2 2 0 0 0-2-2H2a2 2 0 0 0-2 2v12a2 2 0 0 0 2 2h2v3.804ZM9.513 14 6 16.196V14H2V2h16v12H9.513Z"/><path d="M5 5h10v2H5zM5 9h10v2H5z"/></svg><svg fill="none" viewBox="0 0 109 44" id="logo" xmlns="http://www.w3.org/2000/svg"><path d="M23.064 27.568V34H.84V.736h7.488v26.832h14.736Zm27.959-6.24c0 1.984-.288 3.808-.864 5.472-.576 1.632-1.408 3.04-2.496 4.224-1.088 1.152-2.4 2.048-3.936 2.688-1.504.64-3.2.96-5.088.96-1.856 0-3.552-.32-5.088-.96a11.445 11.445 0 0 1-3.888-2.688c-1.088-1.184-1.936-2.592-2.544-4.224-.608-1.664-.912-3.488-.912-5.472 0-1.984.304-3.792.912-5.424.64-1.632 1.504-3.024 2.592-4.176a11.963 11.963 0 0 1 3.936-2.688c1.536-.64 3.2-.96 4.992-.96 1.824 0 3.488.32 4.992.96 1.536.64 2.848 1.536 3.936 2.688 1.088 1.152 1.936 2.544 2.544 4.176.608 1.632.912 3.44.912 5.424Zm-7.296 0c0-2.208-.448-3.936-1.344-5.184-.864-1.28-2.112-1.92-3.744-1.92-1.632 0-2.896.64-3.792 1.92-.896 1.248-1.344 2.976-1.344 5.184s.448 3.968 1.344 5.28c.896 1.28 2.16 1.92 3.792 1.92 1.632 0 2.88-.64 3.744-1.92.896-1.312 1.344-3.072 1.344-5.28Zm18.932-.768c0 4 1.616 6 4.848 6a7.15 7.15 0 0 0 2.064-.288 7.841 7.841 0 0 0 1.632-.672V14.176a11.27 11.27 0 0 0-1.248-.144c-.48-.064-1.04-.096-1.68-.096-1.888 0-3.296.624-4.224 1.872-.928 1.248-1.392 2.832-1.392 4.752Zm15.696 10.272c0 4.128-1.056 7.184-3.168 9.168-2.08 2.016-5.312 3.024-9.696 3.024-1.536 0-3.072-.144-4.608-.432a26.902 26.902 0 0 1-4.272-1.056l1.248-6c1.12.448 2.288.8 3.504 1.056 1.248.256 2.656.384 4.224.384 2.048 0 3.488-.448 4.32-1.344.864-.896 1.296-2.048 1.296-3.456v-.912a12.48 12.48 0 0 1-2.4.816c-.8.16-1.68.24-2.64.24-3.488 0-6.16-1.024-8.016-3.072-1.856-2.08-2.784-4.976-2.784-8.688 0-1.856.288-3.536.864-5.04.576-1.536 1.408-2.848 2.496-3.936 1.12-1.088 2.48-1.92 4.08-2.496 1.6-.608 3.408-.912 5.424-.912.864 0 1.744.048 2.64.144.928.064 1.84.16 2.736.288.896.128 1.744.288 2.544.48.832.16 1.568.336 2.208.528v21.216Zm30.324-9.504c0 1.984-.288 3.808-.864 5.472-.576 1.632-1.408 3.04-2.496 4.224-1.088 1.152-2.4 2.048-3.936 2.688-1.504.64-3.2.96-5.088.96-1.856 0-3.552-.32-5.088-.96a11.445 11.445 0 0 1-3.888-2.688c-1.088-1.184-1.936-2.592-2.544-4.224-.608-1.664-.912-3.488-.912-5.472 0-1.984.304-3.792.912-5.424.64-1.632 1.504-3.024 2.592-4.176a11.963 11.963 0 0 1 3.936-2.688c1.536-.64 3.2-.96 4.992-.96 1.824 0 3.488.32 4.992.96 1.536.64 2.848 1.536 3.936 2.688 1.088 1.152 1.936 2.544 2.544 4.176.608 1.632.912 3.44.912 5.424Zm-7.296 0c0-2.208-.448-3.936-1.344-5.184-.864-1.28-2.112-1.92-3.744-1.92-1.632 0-2.896.64-3.792 1.92-.896 1.248-1.344 2.976-1.344 5.184s.448 3.968 1.344 5.28c.896 1.28 2.16 1.92 3.792 1.92 1.632 0 2.88-.64 3.744-1.92.896-1.312 1.344-3.072 1.344-5.28Z" fill="#fff"/></svg><svg fill="none" viewBox="0 0 12 8" id="mark" xmlns="http://www.w3.org/2000/svg"><path d="M1 3.571 4.636 7 11 1"/></svg><svg fill="none" viewBox="0 0 21 20" id="messages" xmlns="http://www.w3.org/2000/svg"><path fill-rule="evenodd" clip-rule="evenodd" d="M4.187 19.804 10.274 16h7.913a2 2 0 0 0 2-2V2a2 2 0 0 0-2-2h-16a2 2 0 0 0-2 2v12a2 2 0 0 0 2 2h2v3.804ZM9.7 14l-3.513 2.196V14h-4V2h16v12H9.7Z" fill="#9564AA"/><path fill="#9564AA" d="M5.187 5h10v2h-10zM5.187 9h10v2h-10z"/></svg><svg viewBox="0 0 24 24" id="msg" xmlns="http://www.w3.org/2000/svg"><path fill-rule="evenodd" clip-rule="evenodd" d="M6 21.804 12.087 18H20a2 2 0 0 0 2-2V4a2 2 0 0 0-2-2H4a2 2 0 0 0-2 2v12a2 2 0 0 0 2 2h2v3.804ZM11.513 16 8 18.196V16H4V4h16v12h-8.487ZM7 13v-2h7v2H7Zm0-6v2h9V7H7Z"/></svg><svg fill="none" viewBox="0 0 21 21" id="out" xmlns="http://www.w3.org/2000/svg"><path d="m7.48 6.51 3.293 3.293H.187v2h10.586L7.48 15.096l1.414 1.414 5.707-5.707-5.707-5.707L7.48 6.51Z" fill="#9564AA"/><path d="M18.187.803h-4v2h4v16h-4v2h4a2 2 0 0 0 2-2v-16a2 2 0 0 0-2-2Z" fill="#9564AA"/></svg><svg viewBox="0 0 24 24" id="pay" xmlns="http://www.w3.org/2000/svg"><path fill-rule="evenodd" clip-rule="evenodd" d="M5.497 7C5.169 6.463 5 5.803 5 5c0-1.583 1.19-3 3-3 1.812 0 3.273 1.214 4 3.114C12.727 3.214 14.188 2 16 2c1.81 0 3 1.417 3 3 0 .803-.169 1.463-.497 2H20a2 2 0 0 1 2 2v2a2 2 0 0 1-2 2v7a2 2 0 0 1-2 2H6a2 2 0 0 1-2-2v-7a2 2 0 0 1-2-2V9a2 2 0 0 1 2-2h1.497ZM11 9H4v2h7V9Zm9 2h-7V9h7v2Zm-9 9v-7H6v7h5Zm7 0h-5v-7h5v7ZM8 4c-.62 0-1 .452-1 1 0 1.253 1.017 1.85 3.43 1.974C10.16 5.112 9.161 4 8 4Zm5.5 2.974C13.768 5.112 14.767 4 15.93 4c.62 0 1 .452 1 1 0 1.253-1.018 1.85-3.43 1.974Z"/></svg><svg fill="none" viewBox="0 0 23 18" id="photos" xmlns="http://www.w3.org/2000/svg"><path d="M19.187 7a1 1 0 1 1-2 0 1 1 0 0 1 2 0Z" fill="#9564AA"/><path fill-rule="evenodd" clip-rule="evenodd" d="M6.187 10a5 5 0 1 0 10 0 5 5 0 0 0-10 0Zm8 0a3 3 0 1 1-6 0 3 3 0 0 1 6 0Z" fill="#9564AA"/><path fill-rule="evenodd" clip-rule="evenodd" d="M6.124 2.845c.07-.098.15-.219.25-.381l.21-.347.085-.139C7.498.622 8.1 0 9.187 0h4c1.087 0 1.69.622 2.518 1.978l.084.139.211.347c.1.162.18.283.25.381.047.065.087.117.12.155h2.817a3 3 0 0 1 3 3v9a3 3 0 0 1-3 3h-16a3 3 0 0 1-3-3V6a3 3 0 0 1 3-3h2.816c.034-.038.074-.09.121-.155ZM3.187 5a1 1 0 0 0-1 1v9a1 1 0 0 0 1 1h16a1 1 0 0 0 1-1V6a1 1 0 0 0-1-1h-3c-.664 0-1.112-.364-1.56-.987a8.42 8.42 0 0 1-.329-.499 82.367 82.367 0 0 1-.226-.372l-.073-.12C13.546 2.282 13.274 2 13.187 2h-4c-.087 0-.36.282-.812 1.022l-.073.12-.226.372c-.123.2-.225.356-.328.5C7.299 4.635 6.85 5 6.187 5h-3Z" fill="#9564AA"/></svg><svg fill="none" viewBox="0 0 20 18" id="prem" xmlns="http://www.w3.org/2000/svg"><path d="M10 1.5h5l4 5m-9-5 3 5m-3-5H5l-4 5m9-5-3 5m12 0-9 10m9-10h-6m-3 10 3-10m-3 10-9-10m9 10-3-10m6 0H7m-6 0h6" stroke="#FFCF2D" stroke-width="1.5"/></svg><svg viewBox="0 0 24 24" id="premium" xmlns="http://www.w3.org/2000/svg"><path fill-rule="evenodd" clip-rule="evenodd" d="M16.553 2c-1.447 0-2.38.172-3.45.696a6.166 6.166 0 0 0-1.113.7 6.3 6.3 0 0 0-1.068-.668C9.832 2.188 8.85 2 7.455 2 3.716 2 1 5.097 1 9.12c0 3.038 1.694 5.972 4.849 8.81 1.656 1.49 3.77 2.963 5.285 3.747l.866.45.866-.45c1.515-.784 3.63-2.258 5.285-3.747C21.306 15.092 23 12.158 23 9.12c0-3.98-2.742-7.105-6.447-7.12ZM21 9.12c0 2.38-1.414 4.83-4.186 7.323-1.512 1.36-3.455 2.718-4.814 3.43-1.359-.712-3.302-2.07-4.814-3.43C4.414 13.949 3 11.5 3 9.12 3 6.148 4.884 4 7.455 4c1.11 0 1.793.132 2.58.52.465.23.876.534 1.232.914l.735.785.73-.791c.363-.395.78-.706 1.25-.936.764-.374 1.405-.492 2.567-.492C19.09 4.01 21 6.189 21 9.12Z"/></svg><svg fill="none" viewBox="0 0 23 22" id="profile" xmlns="http://www.w3.org/2000/svg"><path fill-rule="evenodd" clip-rule="evenodd" d="M11.187 14c-2.24 0-4-1.573-4-5 0-2.244 1.58-4 4-4 2.414 0 4 1.922 4 4.2 0 3.28-1.782 4.8-4 4.8Zm-2-5c0 2.27.818 3 2 3 1.178 0 2-.702 2-2.8 0-1.25-.784-2.2-2-2.2-1.266 0-2 .816-2 2Z" fill="#9564AA"/><path fill-rule="evenodd" clip-rule="evenodd" d="M11.187 22c-6.075 0-11-4.925-11-11s4.925-11 11-11 11 4.925 11 11-4.925 11-11 11Zm7.4-5.875a9 9 0 1 0-14.799 0C4.913 14.638 7.558 14 11.187 14c3.63 0 6.274.638 7.4 2.125Zm-1.435 1.615c-.293-1.053-2.396-1.74-5.965-1.74-3.57 0-5.672.687-5.965 1.74A8.966 8.966 0 0 0 11.187 20a8.966 8.966 0 0 0 5.965-2.26Z" fill="#9564AA"/></svg><svg fill="none" viewBox="0 0 23 23" id="settings" xmlns="http://www.w3.org/2000/svg"><path fill-rule="evenodd" clip-rule="evenodd" d="M11.187 15.804a4 4 0 1 1 0-8 4 4 0 0 1 0 8Zm2-4a2 2 0 1 1-4 0 2 2 0 0 1 4 0Z" fill="#9564AA"/><path fill-rule="evenodd" clip-rule="evenodd" d="m17.843 20.701 2.217-2.217-.78-2.837.34-.812 2.567-1.449v-3.135l-2.56-1.455-.334-.811.79-2.838-2.219-2.216-2.837.78-.81-.34-1.45-2.567H9.633l-1.454 2.56-.811.335-2.838-.792-2.215 2.215.78 2.838-.34.81-2.567 1.45v3.134l2.558 1.458.335.812-.791 2.837 2.216 2.216 2.838-.78.81.34 1.45 2.566h3.134l1.457-2.558.811-.334 2.838.79Zm.197-7.271-.872 2.082.655 2.38-.568.57-2.376-.663-2.083.86-1.222 2.144h-.804l-1.212-2.146-2.08-.872-2.382.655-.567-.567.662-2.376-.86-2.083-2.144-1.222v-.805l2.147-1.211.872-2.08-.655-2.382.566-.567 2.376.663 2.084-.86 1.22-2.146h.803l1.212 2.147 2.08.872 2.382-.655.569.568-.662 2.375.86 2.084 2.146 1.22v.803L18.04 13.43Z" fill="#9564AA"/></svg></svg>